<mxfile host="app.diagrams.net" agent="Mozilla/5.0 (Windows NT 10.0; Win64; x64) AppleWebKit/537.36 (KHTML, like Gecko) Chrome/138.0.0.0 Safari/537.36" version="28.1.0">
  <diagram name="Page-1" id="4BR8aCopRfsmjszenr10">
    <mxGraphModel dx="2137" dy="725" grid="1" gridSize="10" guides="1" tooltips="1" connect="1" arrows="1" fold="1" page="1" pageScale="1" pageWidth="827" pageHeight="1169" math="0" shadow="0">
      <root>
        <mxCell id="0" />
        <mxCell id="1" parent="0" />
        <mxCell id="6gGAKbbh7nvsYSQzUwo--1" value="Start" style="ellipse;whiteSpace=wrap;html=1;" parent="1" vertex="1">
          <mxGeometry x="60" y="30" width="120" height="80" as="geometry" />
        </mxCell>
        <mxCell id="6gGAKbbh7nvsYSQzUwo--9" style="edgeStyle=orthogonalEdgeStyle;rounded=0;orthogonalLoop=1;jettySize=auto;html=1;entryX=0.5;entryY=0;entryDx=0;entryDy=0;" parent="1" source="6gGAKbbh7nvsYSQzUwo--2" target="6gGAKbbh7nvsYSQzUwo--3" edge="1">
          <mxGeometry relative="1" as="geometry" />
        </mxCell>
        <mxCell id="6gGAKbbh7nvsYSQzUwo--2" value="Input:&amp;nbsp;&lt;span style=&quot;font-size:11.0pt;line-height:&amp;lt;br/&amp;gt;107%;font-family:&amp;quot;Calibri&amp;quot;,sans-serif;mso-ascii-theme-font:minor-latin;&amp;lt;br/&amp;gt;mso-fareast-font-family:Calibri;mso-fareast-theme-font:minor-latin;mso-hansi-theme-font:&amp;lt;br/&amp;gt;minor-latin;mso-bidi-font-family:&amp;quot;Times New Roman&amp;quot;;mso-bidi-theme-font:minor-bidi;&amp;lt;br/&amp;gt;mso-ansi-language:EN-US;mso-fareast-language:EN-US;mso-bidi-language:AR-SA&quot; lang=&quot;EN-US&quot;&gt;Scheduled times,&amp;nbsp;&lt;/span&gt;&lt;div&gt;&lt;span style=&quot;font-size:11.0pt;line-height:&amp;lt;br/&amp;gt;107%;font-family:&amp;quot;Calibri&amp;quot;,sans-serif;mso-ascii-theme-font:minor-latin;&amp;lt;br/&amp;gt;mso-fareast-font-family:Calibri;mso-fareast-theme-font:minor-latin;mso-hansi-theme-font:&amp;lt;br/&amp;gt;minor-latin;mso-bidi-font-family:&amp;quot;Times New Roman&amp;quot;;mso-bidi-theme-font:minor-bidi;&amp;lt;br/&amp;gt;mso-ansi-language:EN-US;mso-fareast-language:EN-US;mso-bidi-language:AR-SA&quot; lang=&quot;EN-US&quot;&gt;feeding time, real-time clock,&lt;/span&gt;&lt;/div&gt;&lt;div&gt;&lt;span style=&quot;font-size:11.0pt;line-height:&amp;lt;br/&amp;gt;107%;font-family:&amp;quot;Calibri&amp;quot;,sans-serif;mso-ascii-theme-font:minor-latin;&amp;lt;br/&amp;gt;mso-fareast-font-family:Calibri;mso-fareast-theme-font:minor-latin;mso-hansi-theme-font:&amp;lt;br/&amp;gt;minor-latin;mso-bidi-font-family:&amp;quot;Times New Roman&amp;quot;;mso-bidi-theme-font:minor-bidi;&amp;lt;br/&amp;gt;mso-ansi-language:EN-US;mso-fareast-language:EN-US;mso-bidi-language:AR-SA&quot; lang=&quot;EN-US&quot;&gt;&amp;nbsp;food bin micro switch,&lt;/span&gt;&lt;/div&gt;&lt;div&gt;&lt;span style=&quot;font-size:11.0pt;line-height:&amp;lt;br/&amp;gt;107%;font-family:&amp;quot;Calibri&amp;quot;,sans-serif;mso-ascii-theme-font:minor-latin;&amp;lt;br/&amp;gt;mso-fareast-font-family:Calibri;mso-fareast-theme-font:minor-latin;mso-hansi-theme-font:&amp;lt;br/&amp;gt;minor-latin;mso-bidi-font-family:&amp;quot;Times New Roman&amp;quot;;mso-bidi-theme-font:minor-bidi;&amp;lt;br/&amp;gt;mso-ansi-language:EN-US;mso-fareast-language:EN-US;mso-bidi-language:AR-SA&quot; lang=&quot;EN-US&quot;&gt;bowl micro switch.&lt;/span&gt;&lt;div&gt;&lt;br&gt;&lt;/div&gt;&lt;/div&gt;" style="shape=parallelogram;perimeter=parallelogramPerimeter;whiteSpace=wrap;html=1;fixedSize=1;" parent="1" vertex="1">
          <mxGeometry x="10" y="180" width="210" height="120" as="geometry" />
        </mxCell>
        <mxCell id="r0UyD8IKxDFuvnb6LTiP-9" style="edgeStyle=orthogonalEdgeStyle;rounded=0;orthogonalLoop=1;jettySize=auto;html=1;entryX=0;entryY=0.5;entryDx=0;entryDy=0;" edge="1" parent="1" source="6gGAKbbh7nvsYSQzUwo--3" target="r0UyD8IKxDFuvnb6LTiP-6">
          <mxGeometry relative="1" as="geometry" />
        </mxCell>
        <mxCell id="r0UyD8IKxDFuvnb6LTiP-42" style="edgeStyle=orthogonalEdgeStyle;rounded=0;orthogonalLoop=1;jettySize=auto;html=1;entryX=1;entryY=0.5;entryDx=0;entryDy=0;" edge="1" parent="1" source="6gGAKbbh7nvsYSQzUwo--3" target="r0UyD8IKxDFuvnb6LTiP-41">
          <mxGeometry relative="1" as="geometry" />
        </mxCell>
        <mxCell id="6gGAKbbh7nvsYSQzUwo--3" value="Boolean expression" style="rhombus;whiteSpace=wrap;html=1;" parent="1" vertex="1">
          <mxGeometry x="61.879999999999995" y="360" width="105" height="90" as="geometry" />
        </mxCell>
        <mxCell id="6gGAKbbh7nvsYSQzUwo--6" value="False" style="text;html=1;align=center;verticalAlign=middle;whiteSpace=wrap;rounded=0;" parent="1" vertex="1">
          <mxGeometry x="180" y="370" width="60" height="30" as="geometry" />
        </mxCell>
        <mxCell id="6gGAKbbh7nvsYSQzUwo--8" style="edgeStyle=orthogonalEdgeStyle;rounded=0;orthogonalLoop=1;jettySize=auto;html=1;entryX=0.522;entryY=-0.013;entryDx=0;entryDy=0;entryPerimeter=0;" parent="1" source="6gGAKbbh7nvsYSQzUwo--1" target="6gGAKbbh7nvsYSQzUwo--2" edge="1">
          <mxGeometry relative="1" as="geometry">
            <mxPoint x="120" y="160" as="targetPoint" />
          </mxGeometry>
        </mxCell>
        <mxCell id="6gGAKbbh7nvsYSQzUwo--11" value="True" style="text;html=1;align=center;verticalAlign=middle;whiteSpace=wrap;rounded=0;" parent="1" vertex="1">
          <mxGeometry x="-14.370000000000005" y="350" width="60" height="30" as="geometry" />
        </mxCell>
        <mxCell id="r0UyD8IKxDFuvnb6LTiP-33" style="edgeStyle=orthogonalEdgeStyle;rounded=0;orthogonalLoop=1;jettySize=auto;html=1;entryX=0.5;entryY=0;entryDx=0;entryDy=0;" edge="1" parent="1" source="6gGAKbbh7nvsYSQzUwo--21" target="r0UyD8IKxDFuvnb6LTiP-21">
          <mxGeometry relative="1" as="geometry">
            <mxPoint x="545" y="640" as="targetPoint" />
          </mxGeometry>
        </mxCell>
        <mxCell id="6gGAKbbh7nvsYSQzUwo--21" value="Turn Servo ON for&amp;nbsp;&lt;div&gt;Feeding time seconds&lt;/div&gt;" style="rounded=0;whiteSpace=wrap;html=1;" parent="1" vertex="1">
          <mxGeometry x="480" y="370" width="130" height="70" as="geometry" />
        </mxCell>
        <mxCell id="r0UyD8IKxDFuvnb6LTiP-35" style="edgeStyle=orthogonalEdgeStyle;rounded=0;orthogonalLoop=1;jettySize=auto;html=1;entryX=0;entryY=0.5;entryDx=0;entryDy=0;" edge="1" parent="1" source="r0UyD8IKxDFuvnb6LTiP-1" target="r0UyD8IKxDFuvnb6LTiP-21">
          <mxGeometry relative="1" as="geometry">
            <Array as="points">
              <mxPoint x="-140" y="660" />
            </Array>
          </mxGeometry>
        </mxCell>
        <mxCell id="r0UyD8IKxDFuvnb6LTiP-1" value="Output:&amp;nbsp;&lt;div&gt;Red_light ON&lt;/div&gt;" style="rounded=0;whiteSpace=wrap;html=1;" vertex="1" parent="1">
          <mxGeometry x="-200" y="580" width="120" height="60" as="geometry" />
        </mxCell>
        <mxCell id="r0UyD8IKxDFuvnb6LTiP-12" style="edgeStyle=orthogonalEdgeStyle;rounded=0;orthogonalLoop=1;jettySize=auto;html=1;entryX=0;entryY=0.5;entryDx=0;entryDy=0;" edge="1" parent="1" source="r0UyD8IKxDFuvnb6LTiP-6" target="6gGAKbbh7nvsYSQzUwo--21">
          <mxGeometry relative="1" as="geometry" />
        </mxCell>
        <mxCell id="r0UyD8IKxDFuvnb6LTiP-6" value="&lt;div&gt;&lt;span style=&quot;font-size:11.0pt;line-height:&amp;lt;br/&amp;gt;107%;font-family:&amp;quot;Calibri&amp;quot;,sans-serif;mso-ascii-theme-font:minor-latin;&amp;lt;br/&amp;gt;mso-fareast-font-family:Calibri;mso-fareast-theme-font:minor-latin;mso-hansi-theme-font:&amp;lt;br/&amp;gt;minor-latin;mso-bidi-font-family:&amp;quot;Times New Roman&amp;quot;;mso-bidi-theme-font:minor-bidi;&amp;lt;br/&amp;gt;mso-ansi-language:EN-US;mso-fareast-language:EN-US;mso-bidi-language:AR-SA&quot; lang=&quot;EN-US&quot;&gt;&lt;br&gt;&lt;/span&gt;&lt;/div&gt;&lt;span style=&quot;font-size:11.0pt;line-height:&amp;lt;br/&amp;gt;107%;font-family:&amp;quot;Calibri&amp;quot;,sans-serif;mso-ascii-theme-font:minor-latin;&amp;lt;br/&amp;gt;mso-fareast-font-family:Calibri;mso-fareast-theme-font:minor-latin;mso-hansi-theme-font:&amp;lt;br/&amp;gt;minor-latin;mso-bidi-font-family:&amp;quot;Times New Roman&amp;quot;;mso-bidi-theme-font:minor-bidi;&amp;lt;br/&amp;gt;mso-ansi-language:EN-US;mso-fareast-language:EN-US;mso-bidi-language:AR-SA&quot; lang=&quot;EN-US&quot;&gt;&amp;nbsp;Schedule_time&amp;nbsp;&lt;/span&gt;&lt;div&gt;&lt;span style=&quot;font-size:11.0pt;line-height:&amp;lt;br/&amp;gt;107%;font-family:&amp;quot;Calibri&amp;quot;,sans-serif;mso-ascii-theme-font:minor-latin;&amp;lt;br/&amp;gt;mso-fareast-font-family:Calibri;mso-fareast-theme-font:minor-latin;mso-hansi-theme-font:&amp;lt;br/&amp;gt;minor-latin;mso-bidi-font-family:&amp;quot;Times New Roman&amp;quot;;mso-bidi-theme-font:minor-bidi;&amp;lt;br/&amp;gt;mso-ansi-language:EN-US;mso-fareast-language:EN-US;mso-bidi-language:AR-SA&quot; lang=&quot;EN-US&quot;&gt;=&amp;nbsp;&lt;/span&gt;&lt;/div&gt;&lt;div&gt;&lt;span style=&quot;font-family: Calibri, sans-serif; font-size: 11pt; background-color: transparent; color: light-dark(rgb(0, 0, 0), rgb(255, 255, 255));&quot;&gt;&amp;nbsp; &amp;nbsp; &amp;nbsp; &amp;nbsp; &amp;nbsp; &amp;nbsp; &amp;nbsp; Real-time&amp;nbsp; &amp;nbsp; &amp;nbsp; &amp;nbsp; &amp;nbsp; &amp;nbsp; &amp;nbsp; &amp;nbsp; &amp;nbsp; &amp;nbsp; &amp;nbsp; &amp;nbsp; &amp;nbsp; &amp;nbsp; &amp;nbsp; &amp;nbsp; &amp;nbsp; &amp;nbsp; &amp;nbsp; &amp;nbsp; &amp;nbsp; &amp;nbsp; &amp;nbsp; &amp;nbsp;&amp;nbsp;&lt;/span&gt;&lt;/div&gt;" style="rhombus;whiteSpace=wrap;html=1;" vertex="1" parent="1">
          <mxGeometry x="255" y="350" width="155" height="110" as="geometry" />
        </mxCell>
        <mxCell id="r0UyD8IKxDFuvnb6LTiP-26" style="edgeStyle=orthogonalEdgeStyle;rounded=0;orthogonalLoop=1;jettySize=auto;html=1;entryX=1;entryY=0.5;entryDx=0;entryDy=0;" edge="1" parent="1" source="r0UyD8IKxDFuvnb6LTiP-7" target="r0UyD8IKxDFuvnb6LTiP-1">
          <mxGeometry relative="1" as="geometry" />
        </mxCell>
        <mxCell id="r0UyD8IKxDFuvnb6LTiP-7" value="&lt;div&gt;&lt;span style=&quot;font-size:11.0pt;line-height:&amp;lt;br/&amp;gt;107%;font-family:&amp;quot;Calibri&amp;quot;,sans-serif;mso-ascii-theme-font:minor-latin;&amp;lt;br/&amp;gt;mso-fareast-font-family:Calibri;mso-fareast-theme-font:minor-latin;mso-hansi-theme-font:&amp;lt;br/&amp;gt;minor-latin;mso-bidi-font-family:&amp;quot;Times New Roman&amp;quot;;mso-bidi-theme-font:minor-bidi;&amp;lt;br/&amp;gt;mso-ansi-language:EN-US;mso-fareast-language:EN-US;mso-bidi-language:AR-SA&quot; lang=&quot;EN-US&quot;&gt;&lt;br&gt;&lt;/span&gt;&lt;/div&gt;&lt;span style=&quot;font-size:11.0pt;line-height:&amp;lt;br/&amp;gt;107%;font-family:&amp;quot;Calibri&amp;quot;,sans-serif;mso-ascii-theme-font:minor-latin;&amp;lt;br/&amp;gt;mso-fareast-font-family:Calibri;mso-fareast-theme-font:minor-latin;mso-hansi-theme-font:&amp;lt;br/&amp;gt;minor-latin;mso-bidi-font-family:&amp;quot;Times New Roman&amp;quot;;mso-bidi-theme-font:minor-bidi;&amp;lt;br/&amp;gt;mso-ansi-language:EN-US;mso-fareast-language:EN-US;mso-bidi-language:AR-SA&quot; lang=&quot;EN-US&quot;&gt;&lt;div&gt;&lt;span style=&quot;font-size:11.0pt;line-height:&amp;lt;br/&amp;gt;107%;font-family:&amp;quot;Calibri&amp;quot;,sans-serif;mso-ascii-theme-font:minor-latin;&amp;lt;br/&amp;gt;mso-fareast-font-family:Calibri;mso-fareast-theme-font:minor-latin;mso-hansi-theme-font:&amp;lt;br/&amp;gt;minor-latin;mso-bidi-font-family:&amp;quot;Times New Roman&amp;quot;;mso-bidi-theme-font:minor-bidi;&amp;lt;br/&amp;gt;mso-ansi-language:EN-US;mso-fareast-language:EN-US;mso-bidi-language:AR-SA&quot; lang=&quot;EN-US&quot;&gt;&lt;br&gt;&lt;/span&gt;&lt;/div&gt;&amp;nbsp;Schedule_time + 15min&lt;/span&gt;&lt;div&gt;&lt;font face=&quot;Calibri, sans-serif&quot;&gt;&lt;span style=&quot;font-size: 14.6667px;&quot;&gt;&amp;gt;&lt;/span&gt;&lt;/font&gt;&lt;/div&gt;&lt;div&gt;&lt;span style=&quot;font-family: Calibri, sans-serif; font-size: 11pt; background-color: transparent; color: light-dark(rgb(0, 0, 0), rgb(255, 255, 255));&quot;&gt;&amp;nbsp; &amp;nbsp; &amp;nbsp; &amp;nbsp; &amp;nbsp; &amp;nbsp; &amp;nbsp; &amp;nbsp; &amp;nbsp; &amp;nbsp; &amp;nbsp; Real-time&amp;nbsp; &amp;nbsp; &amp;nbsp; &amp;nbsp; &amp;nbsp; &amp;nbsp; &amp;nbsp; &amp;nbsp; &amp;nbsp; &amp;nbsp; &amp;nbsp; &amp;nbsp; &amp;nbsp; &amp;nbsp; &amp;nbsp; &amp;nbsp; &amp;nbsp; &amp;nbsp; &amp;nbsp; &amp;nbsp; &amp;nbsp; &amp;nbsp; &amp;nbsp; &amp;nbsp;&amp;nbsp;&lt;/span&gt;&lt;/div&gt;" style="rhombus;whiteSpace=wrap;html=1;" vertex="1" parent="1">
          <mxGeometry x="-90" y="450" width="211.25" height="110" as="geometry" />
        </mxCell>
        <mxCell id="r0UyD8IKxDFuvnb6LTiP-10" value="True" style="text;html=1;align=center;verticalAlign=middle;whiteSpace=wrap;rounded=0;" vertex="1" parent="1">
          <mxGeometry x="410" y="360" width="60" height="30" as="geometry" />
        </mxCell>
        <mxCell id="r0UyD8IKxDFuvnb6LTiP-19" value="End" style="ellipse;whiteSpace=wrap;html=1;" vertex="1" parent="1">
          <mxGeometry x="650" y="620" width="120" height="80" as="geometry" />
        </mxCell>
        <mxCell id="r0UyD8IKxDFuvnb6LTiP-36" style="edgeStyle=orthogonalEdgeStyle;rounded=0;orthogonalLoop=1;jettySize=auto;html=1;entryX=0;entryY=0.5;entryDx=0;entryDy=0;" edge="1" parent="1" source="r0UyD8IKxDFuvnb6LTiP-21" target="r0UyD8IKxDFuvnb6LTiP-19">
          <mxGeometry relative="1" as="geometry" />
        </mxCell>
        <mxCell id="r0UyD8IKxDFuvnb6LTiP-21" value="" style="ellipse;whiteSpace=wrap;html=1;aspect=fixed;" vertex="1" parent="1">
          <mxGeometry x="535" y="650" width="20" height="20" as="geometry" />
        </mxCell>
        <mxCell id="r0UyD8IKxDFuvnb6LTiP-38" value="True" style="text;html=1;align=center;verticalAlign=middle;whiteSpace=wrap;rounded=0;" vertex="1" parent="1">
          <mxGeometry x="20" y="570" width="60" height="30" as="geometry" />
        </mxCell>
        <mxCell id="r0UyD8IKxDFuvnb6LTiP-43" style="edgeStyle=orthogonalEdgeStyle;rounded=0;orthogonalLoop=1;jettySize=auto;html=1;entryX=0.5;entryY=0;entryDx=0;entryDy=0;" edge="1" parent="1" source="r0UyD8IKxDFuvnb6LTiP-41" target="r0UyD8IKxDFuvnb6LTiP-7">
          <mxGeometry relative="1" as="geometry" />
        </mxCell>
        <mxCell id="r0UyD8IKxDFuvnb6LTiP-44" style="edgeStyle=orthogonalEdgeStyle;rounded=0;orthogonalLoop=1;jettySize=auto;html=1;" edge="1" parent="1" source="r0UyD8IKxDFuvnb6LTiP-41" target="r0UyD8IKxDFuvnb6LTiP-1">
          <mxGeometry relative="1" as="geometry" />
        </mxCell>
        <mxCell id="r0UyD8IKxDFuvnb6LTiP-41" value="" style="ellipse;whiteSpace=wrap;html=1;aspect=fixed;" vertex="1" parent="1">
          <mxGeometry x="5.629999999999999" y="395" width="20" height="20" as="geometry" />
        </mxCell>
      </root>
    </mxGraphModel>
  </diagram>
</mxfile>
